<?xml version="1.0" encoding="utf-8"?>
<!-- Generator: Adobe Illustrator 21.0.0, SVG Export Plug-In . SVG Version: 6.00 Build 0)  -->
<svg version="1.1" id="Layer_1" xmlns="http://www.w3.org/2000/svg" xmlns:xlink="http://www.w3.org/1999/xlink" x="0px" y="0px"
	 viewBox="0 0 468 514" style="enable-background:new 0 0 468 514;" xml:space="preserve">
<style type="text/css">
	.st0{fill:#E2D5D8;}
</style>
<g transform="translate(0,514) scale(0.073354,-0.073354)">
	<path class="st0" d="M3000,5068c-229-21-469-90-630-181c-106-59-237-190-279-280c-81-171-80-374,3-542c64-128,211-249,390-321
		c62-25,76-35,61-40c-325-112-518-262-606-474c-56-134-73-305-45-452c71-367,382-594,937-685c152-25,606-25,739,0
		c406,75,673,262,821,572c51,109,90,244,96,338l6,77h-162h-161l-6-27c-67-305-187-474-410-584c-164-80-398-115-647-98
		c-357,25-557,163-612,424c-35,169-1,329,97,452c122,154,405,263,746,290l82,6v146v147l-93,12c-147,18-319,66-426,118
		c-206,100-295,254-262,451c40,229,205,344,517,360c187,9,329-19,479-94c122-62,256-181,356-314l50-67l130,61c71,33,129,64,129,68
		c0,19-145,221-205,286c-179,195-433,321-710,353C3280,5082,3135,5081,3000,5068z"/>
</g>
</svg>
